<?xml version="1.0" encoding="utf-8"?>
<!-- Generator: Adobe Illustrator 25.2.0, SVG Export Plug-In . SVG Version: 6.00 Build 0)  -->
<svg version="1.1" id="Calque_1" xmlns="http://www.w3.org/2000/svg" xmlns:xlink="http://www.w3.org/1999/xlink" x="0px" y="0px"
	 viewBox="0 0 1192 512" style="enable-background:new 0 0 1192 512;" xml:space="preserve">
<style type="text/css">
	.st0{fill:#FFFFFF;}
</style>
<path class="st0" d="M442.8,472l-125.7,31.2V70.5c8,8,29.6,28.8,29.6,28.8s35.2,0.8,37.2,0.8c2.2,0.1,4.1,1.8,4.4,4
	C388.7,106.5,442.8,472,442.8,472z"/>
<path class="st0" d="M303.5,66.1c0,0-5.6,1.6-14.8,4.4c-1.9-6-4.3-11.9-7.2-17.6C271,32.9,255.4,22,237,22c-1.3,0-2.7,0.1-4,0.4
	c-0.4-0.8-1.2-1.2-1.6-2c-8-8.8-18.4-12.8-30.8-12.4c-24,0.8-48,18-67.3,48.8c-13.6,21.6-24,48.8-26.8,70.1
	c-27.6,8.4-46.8,14.4-47.2,14.8c-14,4.4-14.4,4.8-16,18c-1.2,10-38,291.8-38,291.8L307.9,504V65.7C306.4,65.8,305,65.9,303.5,66.1z
	 M233.4,87.7c-16,4.8-33.6,10.4-50.8,15.6c4.8-18.8,14.4-37.6,25.6-50c4.4-4.4,10.4-9.6,17.2-12.8C232.2,54.9,233.8,74.5,233.4,87.7
	z M200.6,24.4c5-0.1,10,1.1,14.4,3.6c-6.4,3.2-12.8,8.4-18.8,14.4c-15.2,16.4-26.8,42-31.6,66.5c-14.4,4.4-28.8,8.8-42,12.8
	C131.3,83.3,163.8,25.2,200.6,24.4z M249.4,82.9c0-12-1.6-29.2-7.2-43.6c18.4,3.6,27.2,24,31.2,36.4
	C266.2,77.7,258.2,80.1,249.4,82.9z"/>
<path class="st0" d="M564,226.3c0,0.4-0.1,1.2-0.2,2.3c-0.1,1.1-0.3,2.4-0.5,3.7c-0.3,1.4-0.6,2.8-0.9,4.3c-0.4,1.5-0.8,2.9-1.4,4.1
	c-0.5,1.3-1.2,2.3-1.9,3.1c-0.7,0.8-1.6,1.2-2.5,1.2h-45.9l-7.6,37.8h43.2c1,0,1.7,0.4,2.2,1.2c0.4,0.8,0.7,1.8,0.7,3.1
	c0,0.5-0.1,1.3-0.2,2.4c-0.1,1.1-0.3,2.4-0.6,3.7c-0.3,1.3-0.6,2.8-1,4.2c-0.4,1.5-0.9,2.8-1.4,4c-0.5,1.2-1.2,2.2-1.9,3
	c-0.7,0.8-1.6,1.2-2.5,1.2h-42.9l-10.4,52.5c-0.1,0.8-0.5,1.5-1.1,2.1c-0.6,0.6-1.5,1.1-2.7,1.4c-1.2,0.4-2.7,0.7-4.6,0.9
	c-1.9,0.2-4.2,0.3-7,0.3c-2.8,0-5.1-0.1-6.9-0.3c-1.8-0.2-3.2-0.5-4.2-0.9c-1-0.4-1.7-0.8-2.1-1.4c-0.4-0.6-0.4-1.3-0.2-2.1
	l25.4-127.5c0.7-3.2,2-5.5,3.9-6.9s4.1-2.1,6.5-2.1h65.8c1.2,0,2,0.4,2.3,1.2C563.9,223.8,564,224.9,564,226.3z"/>
<path d="M234.8,186.6c0.1,0.7,0.1,1.9,0.1,3.6c0,1.7,0,3.7-0.2,5.9c-0.2,2.2-0.4,4.4-0.7,6.8c-0.3,2.3-0.8,4.5-1.4,6.6
	c-0.6,2-1.4,3.7-2.4,5.1c-1,1.3-2.2,2.1-3.6,2.3L160,224c-2.4,0.3-4.3,2.2-4.6,4.6l-4.4,49c-0.3,3.2,2.4,5.9,5.7,5.6l60.3-6.5
	c1.6-0.2,2.7,0.3,3.5,1.5c0.8,1.2,1.3,2.7,1.5,4.7c0.1,0.8,0.1,2,0.1,3.8c0,1.8-0.1,3.7-0.3,5.8c-0.2,2.1-0.4,4.3-0.8,6.7
	c-0.4,2.4-0.9,4.5-1.5,6.4c-0.6,1.9-1.4,3.6-2.4,4.9c-1,1.3-2.2,2.1-3.6,2.3l-61.8,6.7c-2.4,0.3-4.3,2.2-4.6,4.6l-6.9,78.2
	c-0.1,1.3-0.5,2.4-1.3,3.4c-0.8,1-2.1,1.9-3.9,2.6c-1.8,0.8-4.1,1.5-7,2.1c-2.9,0.6-6.4,1.2-10.6,1.7c-4.3,0.5-7.9,0.7-10.7,0.7
	c-2.8,0-5-0.2-6.6-0.6c-1.6-0.4-2.8-1-3.4-1.8c-0.7-0.8-0.9-1.9-0.7-3.1l17.8-200.4c0.5-5,2.1-8.8,4.9-11.3c2.8-2.5,6-3.9,9.7-4.3
	l101.3-11c1.9-0.2,3.2,0.3,3.8,1.4C234.1,182.7,234.5,184.4,234.8,186.6z"/>
<path class="st0" d="M670.2,225.9c0,0.4-0.1,1.2-0.2,2.3c-0.1,1.1-0.3,2.3-0.5,3.6c-0.2,1.3-0.5,2.7-0.9,4.2c-0.4,1.4-0.8,2.8-1.4,4
	c-0.5,1.2-1.2,2.2-2,3c-0.8,0.8-1.6,1.2-2.4,1.2h-50.2l-7,34.3h42.6c1,0,1.7,0.4,2.2,1.1c0.4,0.7,0.7,1.7,0.7,3
	c0,0.5-0.1,1.3-0.2,2.3c-0.1,1.1-0.3,2.2-0.5,3.6c-0.2,1.3-0.5,2.7-0.9,4.1c-0.4,1.4-0.8,2.6-1.4,3.8c-0.5,1.2-1.2,2.1-1.9,2.8
	c-0.7,0.7-1.5,1.1-2.4,1.1h-42.5l-8,39.6h50.8c0.9,0,1.5,0.4,2,1.1c0.4,0.8,0.7,1.9,0.7,3.3c0,0.5,0,1.3-0.1,2.4
	c-0.1,1.1-0.2,2.3-0.5,3.6c-0.3,1.3-0.6,2.7-0.9,4.1c-0.4,1.4-0.8,2.7-1.4,3.9c-0.5,1.2-1.2,2.2-1.9,2.9c-0.7,0.7-1.6,1.1-2.5,1.1
	h-70.6c-1.2,0-2.2-0.2-3.2-0.5c-0.9-0.3-1.7-0.9-2.3-1.6c-0.6-0.8-1-1.7-1.2-2.8c-0.2-1.1-0.2-2.5,0.1-4.1L587,230.8
	c0.7-3.2,2-5.5,3.9-6.9s4.1-2.1,6.5-2.1h70C669.3,221.8,670.2,223.2,670.2,225.9z"/>
<path class="st0" d="M787.3,252.4c0,4.6-0.6,9.2-1.9,13.8c-1.3,4.6-3.3,8.9-6,12.9c-2.8,4.1-6.3,7.7-10.7,11
	c-4.4,3.3-9.7,5.9-16,7.8c3.5,1.4,6.4,4.1,8.7,8.2c2.4,4.1,4.3,9.7,5.8,16.8l5.8,28.6c0.3,1.6,0.5,3,0.7,4.3
	c0.2,1.3,0.3,2.3,0.3,3.2c0,0.7-0.2,1.3-0.7,1.8c-0.5,0.5-1.3,0.9-2.6,1.2c-1.2,0.3-2.9,0.6-5.1,0.7c-2.1,0.1-4.8,0.2-8.1,0.2
	c-3,0-5.5-0.1-7.3-0.3c-1.8-0.2-3.3-0.5-4.3-0.9c-1-0.4-1.7-0.9-2-1.6c-0.3-0.7-0.6-1.4-0.7-2.3l-5.4-31.2c-0.6-3.6-1.4-6.8-2.3-9.6
	c-1-2.8-2.2-5.1-3.7-6.9s-3.4-3.2-5.6-4.1c-2.2-0.9-4.8-1.4-7.9-1.4h-8.9l-10.8,53.7c-0.1,0.7-0.5,1.4-1.1,2
	c-0.6,0.6-1.5,1.1-2.7,1.4c-1.2,0.4-2.7,0.6-4.6,0.8c-1.9,0.2-4.2,0.3-7,0.3c-2.8,0-5-0.1-6.8-0.3c-1.8-0.2-3.2-0.5-4.2-0.8
	c-1-0.4-1.7-0.8-2.1-1.4c-0.4-0.5-0.4-1.2-0.2-2l25.6-127.7c0.6-3.2,1.9-5.5,3.9-6.9c2-1.4,4.3-2.1,6.9-2.1h37.7
	c6.6,0,12.5,0.6,17.9,1.8c5.3,1.2,9.9,3.1,13.6,5.6c3.8,2.5,6.7,5.7,8.7,9.6C786.3,242.7,787.3,247.2,787.3,252.4z M756.7,257.7
	c0-2-0.3-3.9-1-5.6c-0.7-1.7-1.8-3.2-3.3-4.5c-1.5-1.3-3.5-2.2-5.9-2.9c-2.4-0.7-5.3-1-8.7-1h-16.2l-7.9,39.9h13.6
	c5.4,0,10-0.8,13.8-2.3c3.8-1.6,6.8-3.6,9.1-6c2.3-2.5,4-5.2,5.1-8.2C756.2,263.9,756.7,260.8,756.7,257.7z"/>
<path class="st0" d="M909.5,250.5c0,4.3-0.6,8.3-1.8,12.1c-1.2,3.8-2.9,7.3-5.2,10.4c-2.3,3.2-5,5.9-8.3,8.4
	c-3.2,2.4-6.8,4.4-10.8,5.8c3.2,0.6,6.1,1.6,8.8,3c2.7,1.4,5,3.3,6.9,5.5c1.9,2.2,3.4,4.9,4.5,8c1,3.1,1.6,6.5,1.6,10.4
	c0,3.5-0.5,7.1-1.4,10.8c-0.9,3.7-2.4,7.4-4.5,10.9c-2,3.5-4.7,6.9-7.9,10.2c-3.3,3.2-7.2,6-11.8,8.5c-4.6,2.4-9.9,4.3-15.9,5.8
	c-6,1.4-13,2.1-21,2.1h-39c-3,0-5.1-0.7-6.5-2.2c-1.3-1.4-1.7-3.7-1-6.8l24.5-122.5c0.6-3.2,1.9-5.5,3.9-6.9c2-1.4,4.3-2.1,6.9-2.1
	h33.8c7.5,0,13.9,0.6,19.3,1.7c5.4,1.2,10,2.9,13.7,5.3c3.7,2.4,6.5,5.3,8.4,8.9C908.6,241.3,909.5,245.5,909.5,250.5z M875.3,315.5
	c0-4.6-1.7-8.3-5.2-11c-3.4-2.7-8.9-4-16.5-4h-19l-7.9,40H847c5.1,0,9.5-0.7,13-2.2c3.5-1.4,6.4-3.3,8.7-5.6c2.3-2.3,4-5,5.1-8
	C874.8,321.7,875.3,318.6,875.3,315.5z M880.1,255.8c0-2-0.4-3.8-1.1-5.3c-0.7-1.5-1.8-2.8-3.3-3.9c-1.4-1.1-3.3-1.9-5.5-2.5
	c-2.2-0.6-5-0.9-8.4-0.9h-15.5l-7.4,36.5H855c4.7,0,8.6-0.7,11.7-2.2c3.1-1.5,5.7-3.4,7.7-5.8c2-2.4,3.4-4.9,4.3-7.8
	C879.7,261.1,880.1,258.4,880.1,255.8z"/>
<path class="st0" d="M1028.7,225.9c0,0.4-0.1,1.2-0.2,2.3c-0.1,1.1-0.3,2.3-0.5,3.6c-0.2,1.3-0.5,2.7-0.9,4.2
	c-0.4,1.4-0.8,2.8-1.4,4c-0.5,1.2-1.2,2.2-2,3c-0.8,0.8-1.6,1.2-2.4,1.2h-50.2l-7,34.3h42.6c1,0,1.7,0.4,2.2,1.1
	c0.4,0.7,0.7,1.7,0.7,3c0,0.5-0.1,1.3-0.2,2.3c-0.1,1.1-0.3,2.2-0.5,3.6c-0.2,1.3-0.5,2.7-0.9,4.1c-0.4,1.4-0.8,2.6-1.4,3.8
	c-0.5,1.2-1.2,2.1-1.9,2.8c-0.7,0.7-1.5,1.1-2.4,1.1h-42.5l-8,39.6h50.8c0.9,0,1.5,0.4,2,1.1c0.4,0.8,0.7,1.9,0.7,3.3
	c0,0.5,0,1.3-0.1,2.4c-0.1,1.1-0.2,2.3-0.5,3.6c-0.3,1.3-0.6,2.7-0.9,4.1c-0.4,1.4-0.8,2.7-1.4,3.9c-0.5,1.2-1.2,2.2-1.9,2.9
	c-0.7,0.7-1.6,1.1-2.5,1.1h-70.6c-1.2,0-2.2-0.2-3.2-0.5c-0.9-0.3-1.7-0.9-2.3-1.6c-0.6-0.8-1-1.7-1.2-2.8c-0.2-1.1-0.2-2.5,0.1-4.1
	l24.5-122.5c0.7-3.2,2-5.5,3.9-6.9s4.1-2.1,6.5-2.1h70C1027.8,221.8,1028.7,223.2,1028.7,225.9z"/>
<path class="st0" d="M1145.8,252.4c0,4.6-0.6,9.2-1.9,13.8c-1.3,4.6-3.3,8.9-6,12.9c-2.8,4.1-6.3,7.7-10.7,11
	c-4.4,3.3-9.7,5.9-16,7.8c3.5,1.4,6.4,4.1,8.7,8.2c2.4,4.1,4.3,9.7,5.8,16.8l5.8,28.6c0.3,1.6,0.5,3,0.7,4.3
	c0.2,1.3,0.3,2.3,0.3,3.2c0,0.7-0.2,1.3-0.7,1.8c-0.5,0.5-1.3,0.9-2.6,1.2c-1.2,0.3-2.9,0.6-5.1,0.7c-2.1,0.1-4.8,0.2-8.1,0.2
	c-3,0-5.5-0.1-7.3-0.3c-1.8-0.2-3.3-0.5-4.3-0.9c-1-0.4-1.7-0.9-2-1.6c-0.3-0.7-0.6-1.4-0.7-2.3l-5.4-31.2c-0.6-3.6-1.4-6.8-2.3-9.6
	c-1-2.8-2.2-5.1-3.7-6.9s-3.4-3.2-5.6-4.1c-2.2-0.9-4.8-1.4-7.9-1.4h-8.9l-10.8,53.7c-0.1,0.7-0.5,1.4-1.1,2
	c-0.6,0.6-1.5,1.1-2.7,1.4c-1.2,0.4-2.7,0.6-4.6,0.8c-1.9,0.2-4.2,0.3-7,0.3c-2.8,0-5-0.1-6.8-0.3c-1.8-0.2-3.2-0.5-4.2-0.8
	c-1-0.4-1.7-0.8-2.1-1.4c-0.4-0.5-0.4-1.2-0.2-2l25.6-127.7c0.6-3.2,1.9-5.5,3.9-6.9c2-1.4,4.3-2.1,6.9-2.1h37.7
	c6.6,0,12.5,0.6,17.9,1.8c5.3,1.2,9.9,3.1,13.6,5.6c3.8,2.5,6.7,5.7,8.7,9.6C1144.8,242.7,1145.8,247.2,1145.8,252.4z M1115.2,257.7
	c0-2-0.3-3.9-1-5.6c-0.7-1.7-1.8-3.2-3.3-4.5c-1.5-1.3-3.5-2.2-5.9-2.9c-2.4-0.7-5.3-1-8.7-1H1080l-7.9,39.9h13.6
	c5.4,0,10-0.8,13.8-2.3c3.8-1.6,6.8-3.6,9.1-6c2.3-2.5,4-5.2,5.1-8.2C1114.6,263.9,1115.2,260.8,1115.2,257.7z"/>
</svg>
