<?xml version="1.0" encoding="utf-8"?>
<!-- Generator: Adobe Illustrator 25.2.0, SVG Export Plug-In . SVG Version: 6.00 Build 0)  -->
<svg version="1.1" id="Calque_1" xmlns="http://www.w3.org/2000/svg" xmlns:xlink="http://www.w3.org/1999/xlink" x="0px" y="0px"
	 viewBox="0 0 1616.1 600" style="enable-background:new 0 0 1616.1 600;" xml:space="preserve">
<style type="text/css">
	.st0{fill:#FDFEFF;}
	.st1{fill:#FFFFFF;}
	.st2{font-family:'Calibri-BoldItalic';}
	.st3{font-size:311.0215px;}
	.st4{font-size:144.0028px;}
</style>
<path class="st0" d="M543.1,539.4c0,4.9-1.2,6.7-6.4,6.7c-91.1-0.1-182.2-0.1-273.3-0.2c-5.7,0-11.4-0.4-17.1-0.1
	c-4.2,0.2-4.8-1.7-4.8-5.3c0.2-9.7,0-19.5,0-29.2c0-25.6,0.1-51.1-0.1-76.7c0-4.8,0.9-6.6,6.3-6.6c57.1,0.2,114.1,0,171.2,0.2
	c5.3,0,6.9-1.4,6.9-6.7c-0.2-58.1-0.1-116.2-0.1-174.3c0-7.7,0-7.7,7.9-7.7c33.9,0,67.7,0,101.6,0c7.9,0,7.9,0,7.9,8.1
	c0,48.2,0,96.3,0,144.5C543,441.2,542.9,490.3,543.1,539.4z"/>
<path class="st0" d="M358.8,348.2c0,8.5,0,8.5-8.2,8.5c-56.7,0-113.3,0.1-170-0.1c-5.7,0-7.1,1.5-7.1,7
	c0.2,58.1,0.1,116.1,0.1,174.2c0,8.2,0,8.1-8.1,8.1c-33.7-0.1-67.3,0-101-0.1c-8.2,0-8.2,0-8.2-8c0-48.3,0-96.7,0-145h-0.1
	c0-48.7,0-97.4,0-146.1c0-7.3,0-7.3,7.3-7.3c95.7,0.1,191.3,0.1,287,0.2c9.7,0,8.3-0.6,8.3,8.2C358.7,281.3,358.7,314.7,358.8,348.2
	z"/>
<path class="st0" d="M544.1,165.3c0,5.2-2.3,5.9-6.7,5.9c-48.6-0.1-97.1-0.1-145.7-0.1v0.1c-48.6,0-97.1,0-145.7,0
	c-7.3,0-7.3,0-7.3-7.3c0-34,0-68,0-102c0-7.7,0-7.8,8-7.8c80.9,0,161.9,0,242.8,0.1c16.4,0,32.7,0.1,49.1,0c4.1,0,5.4,1.2,5.4,5.3
	C544,94.7,543.9,130,544.1,165.3z"/>
<path class="st0" d="M173.8,164.9c0.1,5.2-1.7,6.5-6.7,6.5c-34.6-0.2-69.1,0-103.7,0c-7.4,0-7.4-0.1-7.4-7.2
	c0-34.5,0.1-69.1-0.2-103.6c0-5.4,1.7-6.8,6.9-6.7c34.8,0.2,69.5,0.2,104.3,0c5.3,0,6.9,1.5,6.8,6.8c-0.3,17.5-0.1,34.9-0.1,52.4h0
	C173.7,130.4,173.5,147.6,173.8,164.9z"/>
<text transform="matrix(1 0 0 1 624.963 288.6887)" class="st1 st2 st3">FERBER</text>
<text transform="matrix(1 0 0 1 631.0415 487.9963)" class="st1 st2 st4">ENTERPRISE</text>
</svg>
